PathFileType	4	(X/Y/Z)	C:/Users/beibeiliu/ov580/test_trc/User3\sequence.3_training_dense_right.trc
DataRate	CameraRate	NumFrames	NumMarkers	Units	OrigDataRate	OrigDataStartFrame	OrigNumFrames
120	120	24	19	mm	120	1	78
Frame#	Time	ThumbCMC			ThumbMCP			ThumbIP			ThumbTip			IndexMCP			IndexPIP			IndexTip			MiddleMCP			MiddlePIP			MiddleTip			RingMCP			RingPIP			RingTip			PinkyMCP			PinkyPIP			PinkyTip			BackHand1			BackHand2			BackHand3	
		X0	Y0	Z0	X1	Y1	Z1	X2	Y2	Z2	X3	Y3	Z3	X4	Y4	Z4	X5	Y5	Z5	X6	Y6	Z6	X7	Y7	Z7	X8	Y8	Z8	X9	Y9	Z9	X10	Y10	Z10	X11	Y11	Z11	X12	Y12	Z12	X13	Y13	Z13	X14	Y14	Z14	X15	Y15	Z15	X16	Y16	Z16	X17	Y17	Z17	X18	Y18	Z18	
0	0	66.5382	2.74133	-9.66561	40.4968	-3.05696	-29.1773	22.0094	-9.41917	-51.8203	7.97879	-14.5262	-66.5124	74.882	7.52693	-87.0602	63.6149	4.98754	-113.388	53.8754	7.00203	-131.564	108.037	6.27877	-91.7026	104.057	7.73716	-118.434	106.829	8.73817	-149.27	125.794	-3.13755	-82.8829	132.115	-0.959539	-107.028	141.708	-0.265004	-132.473	141.292	-17.348	-66.0539	154.766	-18.8158	-82.7501	168.898	-18.6928	-97.112	124.237	6.2705	-36.9099	127.108	13.6678	-6.71756	94.8958	19.5806	-22.0105	
1	0.00833333	64.3387	2.18103	-15.051	44.7955	-4.80795	-29.2681	23.6774	-9.97672	-54.1556	6.17855	-14.3125	-63.6174	75.2011	6.24733	-87.4334	62.3572	6.46254	-113.026	57.0349	5.34733	-136.752	104.63	6.24027	-91.3962	104	7.57169	-123.204	106.797	8.50865	-152.03	124.247	-2.23012	-85.8337	135.716	-3.0775	-104.093	140.239	-0.426377	-133.023	140.835	-18.461	-66.2249	156.055	-19.5774	-84.3777	167.073	-19.5035	-103.069	123.934	5.16498	-37.2861	127.06	11.8334	-7.53956	94.5038	19.5445	-25.8597	
2	0.0166667	63.9863	2.00463	-10.3277	45.143	-6.06351	-32.3231	22.7012	-9.98134	-53.3382	8.70468	-14.6335	-66.5582	75.9291	5.46528	-88.433	62.8424	5.78855	-109.698	58.5942	4.89541	-134.25	105.478	5.89662	-96.9945	104.181	6.77834	-123.342	107.577	6.85399	-154.235	127.149	-4.29359	-84.6588	132.125	-3.0974	-105.347	140.797	-2.70288	-132.469	142.117	-17.9311	-67.8536	155.306	-21.9042	-82.8316	166.565	-20.9599	-99.6953	125.301	4.26711	-38.9594	130.565	10.7671	-10.8953	96.9775	18.6701	-25.0156	
3	0.025	63.0733	1.40264	-13.5094	43.1187	-5.57848	-29.4561	23.1502	-10.9402	-54.9643	6.12586	-15.5762	-66.3946	74.567	5.14595	-86.3808	62.2379	4.67402	-114.056	59.4858	4.19298	-136.256	109.545	3.73742	-94.9776	108.358	4.43109	-124.455	109.793	3.88741	-152.62	126.526	-3.70567	-86.5185	134.871	-3.37818	-109.086	140.173	-3.8281	-133.54	141.932	-19.196	-66.9063	153.746	-22.5431	-81.5611	170.036	-21.7392	-102.399	123.299	5.87053	-39.5828	128.876	8.72166	-8.2539	93.3073	17.3482	-28.795	
4	0.0333333	62.0265	0.905561	-14.7582	43.8434	-7.32287	-30.4858	22.7468	-12.2323	-53.132	6.30336	-17.6701	-66.9379	75.268	3.75571	-90.3976	62.809	3.87881	-110.857	59.6673	1.94828	-135.331	104.738	3.20111	-91.7655	105.917	2.67292	-124.39	106.522	3.63302	-150.824	124.691	-7.15946	-82.0047	131.976	-4.51056	-110.145	140.689	-4.1891	-134.684	142.233	-22.3073	-64.1813	156.031	-23.0037	-85.3608	169.783	-24.2003	-102.55	123.603	3.61168	-36.2198	131.998	8.38352	-8.47671	98.4305	14.8757	-24.8268	
5	0.0416667	61.6865	-1.35407	-15.3232	44.7374	-9.55847	-31.056	24.5637	-14.7721	-49.141	7.87437	-19.4244	-64.1422	71.6337	2.4483	-87.9947	65.233	1.06249	-113.871	52.6133	2.84037	-136.404	106.029	1.64174	-91.8872	106.956	1.68887	-120.487	104.429	2.53123	-148.962	123.471	-6.42767	-85.4812	133.193	-5.84962	-106.435	136.202	-5.95701	-131.478	144.029	-22.418	-67.1715	151.889	-23.6901	-82.9996	170.686	-23.2012	-102.58	126.619	0.809706	-38.4651	128.103	6.7652	-10.8751	97.0175	13.5049	-28.2749	
6	0.05	62.5528	-2.07758	-13.7748	40.3039	-6.6789	-29.0337	19.0278	-11.3885	-51.6435	4.52427	-17.4715	-64.0512	71.1043	4.14298	-88.2363	58.8708	3.97936	-112.599	57.0849	3.41181	-135.932	100.955	4.87494	-93.2143	101.372	3.70343	-120.554	101.556	4.53715	-150.632	124.68	-4.87141	-85.4276	130.393	-4.39621	-107.514	134.913	-4.55704	-132.121	138.266	-20.0889	-66.805	153.046	-23.1194	-85.882	166.196	-21.8337	-106.088	121.775	4.85487	-35.5309	124.281	8.08501	-8.10285	92.9411	14.6418	-26.4983	
7	0.0583333	61.5143	1.97609	-9.60319	41.2326	-1.93156	-31.2879	22.944	-5.9563	-54.7594	8.7441	-10.5467	-72.2825	68.4997	12.8751	-88.6121	61.6055	10.1809	-115.848	55.2213	11.4488	-139.267	99.6308	10.3207	-96.1798	96.9198	9.99403	-123.148	98.3272	10.8918	-155.648	120.693	0.286989	-89.0023	124.593	1.08161	-112.062	122.857	2.34704	-135.635	135.001	-13.6898	-68.8925	143.293	-15.1943	-88.5729	157.245	-14.0559	-110.205	120.45	11.0053	-40.611	124.902	12.1055	-6.98588	90.449	21.0076	-22.9329	
8	0.0666667	65.1913	6.13734	-16.5285	44.2373	3.25609	-35.3484	31.7975	-0.426113	-60.4491	18.9633	-4.94567	-79.5076	71.4803	17.745	-92.1404	63.8772	17.134	-116.751	61.8294	15.4152	-138.003	97.6371	15.6309	-97.4536	93.1201	14.1564	-127.58	89.3819	14.8266	-151.509	112.884	5.65277	-88.7126	113.08	4.78166	-112.754	113.26	6.05751	-141.592	131.785	-8.41878	-75.5338	133.105	-9.56244	-97.416	143.395	-10.5703	-116.218	124.605	14.1953	-41.8212	128.342	14.2882	-12.9253	94.3327	24.1585	-23.8312	
9	0.075	64.0754	8.01753	-12.4431	45.9447	3.70202	-38.251	35.0683	0.340814	-64.2824	25.5663	-3.98565	-85.9904	73.9738	15.2068	-93.7677	64.5448	13.6017	-115.035	64.6316	10.9397	-142.54	90.821	14.543	-102	87.7362	10.9896	-128.536	82.7709	12.9965	-152.868	109.864	3.57483	-91.4555	106.075	2.65973	-114.291	103.715	3.80409	-140.983	129.234	-8.90868	-78.786	126.346	-8.73848	-99.4135	127.508	-5.28094	-120.306	118.517	13.3271	-41.8128	127.802	14.7462	-17.227	96.3292	26.0884	-25.8926	
10	0.0833333	67.8729	6.09139	-15.7105	46.4432	4.06263	-40.6212	35.7874	-1.85897	-67.5535	30.8797	-7.36307	-88.7887	71.7307	11.9321	-90.5407	65.6882	8.82205	-119.531	70.1096	6.7779	-140.047	91.1455	8.65054	-102.367	88.4506	6.32901	-125.383	82.2538	8.1632	-153.687	108.721	0.270678	-96.3919	105.061	-0.109926	-115.882	101.353	1.36961	-141.15	127.079	-10.9532	-80.2107	121.444	-9.42913	-99.7343	120.541	-4.42042	-124.046	118.819	12.2291	-42.3013	127.689	16.9867	-15.8613	94.3857	22.5369	-27.153	
11	0.0916667	67.0674	4.65272	-11.1083	52.6006	2.8294	-37.9319	40.2669	-0.552428	-70.5771	32.0964	-5.37981	-91.1741	69.8849	11.5066	-92.6663	68.7007	9.35862	-118.368	69.193	9.12311	-142.639	88.4708	10.1657	-98.8113	86.266	8.59914	-126.619	79.0887	12.7167	-153.245	107.682	2.36496	-95.5946	105.444	1.42108	-116.09	99.2541	4.55856	-143.094	121.027	-6.41885	-81.3314	120.598	-5.35903	-102.862	120.285	-2.3148	-123.519	119.751	12.7757	-48.4256	126.411	17.6762	-18.2648	89.342	23.4914	-31.1198	
12	0.1	65.5002	7.49999	-12.4943	52.7688	5.22784	-39.1664	42.3347	1.61874	-66.3063	35.638	-1.80047	-88.2919	70.6305	17.5175	-94.8188	70.7563	15.3021	-118.224	68.2271	16.9386	-138.75	88.6156	16.9101	-103.614	89.1432	14.8458	-129.565	83.7403	19.189	-154.611	107.344	9.02564	-96.5956	107.709	9.39871	-119.889	99.9638	13.6923	-142.612	125.233	0.514646	-81.9249	120.807	1.70056	-101.205	118.783	5.64053	-122.976	118.535	20.5976	-47.0449	125.606	21.9802	-18.9011	90.1217	29.2486	-27.7377	
13	0.108333	72.0711	10.3725	-17.5949	54.9559	8.1868	-42.2059	47.5863	6.40452	-69.9935	39.3567	1.4874	-89.5809	77.4014	20.9439	-93.1637	75.8798	21.5156	-119.389	74.6527	24.5862	-145.658	97.7234	22.3483	-101.011	93.3687	22.1273	-126.788	88.8918	27.8355	-158.369	113.818	15.3054	-99.2881	106.754	16.3191	-117.863	107.255	19.2439	-141.288	131.651	5.95865	-80.7338	126.483	8.08928	-104.626	122.95	12.1841	-121.264	121.006	25.6288	-44.8106	127.769	28.3654	-20.8461	91.363	33.9511	-28.8582	
14	0.116667	73.245	11.5548	-19.7514	55.0788	8.69409	-43.0096	50.3512	6.42397	-72.6145	44.0816	2.86807	-97.8471	79.7682	24.2763	-98.8071	80.7466	22.9801	-123.784	78.3	26.1336	-145.134	97.6251	24.5506	-103.885	98.8559	24.2689	-127.774	93.1213	29.956	-158.841	119.5	17.5852	-98.9049	114.642	19.9229	-123.002	110.795	22.8511	-147.251	134.681	8.62222	-81.2826	135.23	11.4951	-102.457	129.574	16.796	-126.163	127.557	27.318	-47.6775	128.913	32.1522	-19.6253	94.6733	33.2366	-34.2603	
15	0.125	74.7716	7.74963	-21.619	61.4797	2.92786	-45.7031	53.7219	-0.275197	-74.4058	50.3054	-5.11151	-95.9046	83.531	18.3014	-99.5112	82.6965	17.0608	-125.699	82.4529	20.3319	-147.15	103.376	19.4323	-107.305	99.2327	19.7308	-132.645	96.4635	24.3658	-158.132	119.437	14.5031	-99.4828	123.568	15.5088	-119.466	119.407	18.3675	-146.706	139.899	6.82913	-81.858	139.265	8.3962	-102.717	135.355	13.3421	-124.807	132.011	25.9972	-47.3241	134.851	30.3862	-22.598	97.8964	29.3025	-32.2769	
16	0.133333	81.0742	-0.937362	-21.6523	63.7222	-5.97028	-47.848	61.8712	-10.6361	-78.5457	55.1345	-17.3375	-98.9101	87.7175	6.99264	-101.596	85.6203	4.94764	-125.503	91.2642	6.71901	-150.305	106.615	10.0266	-104.868	104.414	7.32373	-130.694	106.424	10.0494	-158.918	124.694	4.82499	-95.5071	124.464	4.79401	-122.42	121.839	7.34322	-147.755	145.078	-0.619312	-79.4855	140.654	-0.521585	-104.838	138.682	3.25594	-126.29	132.11	20.6126	-47.5348	135.987	26.7168	-20.0528	100.74	22.1915	-33.0568	
17	0.141667	78.3822	-8.92033	-22.2149	68.3092	-17.9791	-48.6888	59.3647	-26.4616	-74.0011	55.3227	-33.4808	-92.8711	91.0913	-9.10194	-101.059	90.2193	-13.2001	-124.752	92.028	-14.9889	-147.136	110.068	-7.22845	-107.634	107.774	-11.3525	-133.371	103.068	-10.6939	-160.004	123.879	-9.48735	-97.996	127.141	-12.3353	-123.41	121.824	-12.9546	-144.426	142.223	-12.4856	-81.468	142.268	-15.0624	-103.797	144.669	-11.9751	-123.286	132.894	11.2451	-48.9861	134.622	20.2885	-19.9074	97.0698	12.8989	-34.5727	
18	0.15	73.0913	-17.2428	-15.1125	63.5089	-28.7909	-44.0495	54.5157	-40.5136	-67.9263	48.759	-49.1748	-87.8534	83.6073	-26.9684	-95.2843	85.0972	-33.6332	-117.927	89.7886	-37.7637	-144.805	103.002	-25.3414	-105.253	104.865	-32.5316	-125.101	103.633	-35.493	-156.827	125.725	-26.2316	-92.2386	122.387	-31.4487	-114.354	118.989	-35.8704	-141.307	140.504	-27.9386	-74.8577	137.594	-32.9456	-99.883	140.167	-34.2171	-117.502	125.153	-1.67732	-49.8058	128.188	8.34861	-21.9172	96.469	3.32445	-35.3558	
19	0.158333	68.7389	-18.8579	-14.1142	59.4202	-31.7182	-38.7749	49.6969	-44.3736	-59.8844	39.8536	-55.2039	-79.2275	76.3376	-38.8593	-87.1028	74.5703	-48.6656	-112.007	73.8633	-55.6014	-134.157	99.7587	-41.3052	-99.5117	94.9416	-51.2561	-121.119	90.5674	-57.2765	-150.312	115.54	-43.7087	-91.0406	110.46	-50.6024	-110.389	108.439	-58.9908	-136.911	131.039	-44.5187	-68.6106	129.772	-51.3644	-90.996	124.598	-54.255	-114.246	120.478	-13.679	-49.595	127.581	0.000239032	-24.6799	94.1747	-2.16929	-32.1997	
20	0.166667	66.7639	-13.6199	-11.262	50.1351	-23.3081	-29.2194	33.5433	-36.6567	-53.9654	29.4669	-48.5957	-71.053	68.4476	-44.5991	-81.2632	58.8058	-55.1469	-102.859	57.3092	-66.3954	-123.944	83.3601	-49.3727	-87.8804	78.8749	-62.7781	-108.574	68.9249	-73.3113	-139.409	99.7108	-56.7907	-81.737	93.3226	-67.2057	-101.675	92.5966	-78.3336	-121.914	119.495	-60.6896	-63.665	114.839	-69.6601	-80.3933	110.546	-76.4114	-102.759	120.953	-23.5083	-41.5786	128.348	-7.96897	-20.4162	87.127	-5.77912	-33.8721	
21	0.175	65.7375	1.55071	-9.39483	47.8803	-8.71028	-29.3061	27.7833	-16.8984	-51.193	16.8011	-25.8205	-62.8264	54.4881	-38.8369	-77.5182	44.7228	-46.741	-93.4104	38.0875	-62.893	-117.207	68.4633	-51.4055	-81.9898	54.5583	-62.6142	-102.167	46.1145	-75.1886	-126.531	82.6605	-63.3093	-73.4276	73.5867	-72.0622	-87.57	65.3819	-84.5751	-109.359	96.8944	-68.4852	-56.0115	87.3246	-76.5883	-70.8898	80.8174	-84.267	-90.5402	109.764	-28.2933	-36.3351	124.225	-17.5129	-15.8639	93.7592	-3.41523	-29.2153	
22	0.183333	75.1591	17.0041	-9.13978	54.8569	15.3138	-26.2987	33.8654	8.68291	-52.4569	18.0055	4.54934	-65.0502	48.4161	-20.9253	-74.1021	34.1147	-31.1246	-90.8437	24.7242	-43.4804	-108.433	57.3338	-41.4509	-72.4579	39.7124	-50.8835	-92.1807	22.44	-60.3374	-118.542	65.1218	-55.5306	-61.6348	50.3636	-61.8505	-79.62	37.1862	-74.5296	-99.0114	72.3345	-61.2225	-46.75	62.5749	-72.22	-60.4011	50.9127	-74.5184	-80.7258	100.349	-32.702	-35.1298	119.834	-21.9636	-9.75153	95.1884	-1.21292	-29.2871	
23	0.191667	88.2665	32.138	-7.87422	67.8182	35.8801	-28.8758	48.0686	34.98	-49.0722	30.0744	39.3913	-65.8579	50.6191	-1.19284	-68.2799	32.2784	-3.49406	-90.264	18.6042	-14.8702	-104.668	48.0127	-18.7101	-69.9331	27.527	-25.3701	-88.673	10.1289	-29.271	-111.271	46.5998	-36.1729	-57.6056	30.076	-42.7319	-76.0515	12.4523	-44.0965	-95.7271	52.2952	-46.5259	-40.814	41.003	-48.6475	-52.1038	25.1963	-55.2021	-71.829	88.5247	-30.1772	-28.9614	113.143	-26.2781	-6.50445	101.475	3.90328	-24.6986	
